<?xml version="1.0" encoding="utf-8"?>
<!-- Generator: Adobe Illustrator 16.0.0, SVG Export Plug-In . SVG Version: 6.00 Build 0)  -->
<!DOCTYPE svg PUBLIC "-//W3C//DTD SVG 1.1//EN" "http://www.w3.org/Graphics/SVG/1.1/DTD/svg11.dtd">
<svg version="1.1" id="Layer_1" xmlns="http://www.w3.org/2000/svg" xmlns:xlink="http://www.w3.org/1999/xlink" x="0px" y="0px"
	 width="841.889px" height="595.281px" viewBox="0 0 841.889 595.281" enable-background="new 0 0 841.889 595.281"
	 xml:space="preserve">
<path fill="#FFFFFF" d="M644.175,37.205H197.599c-20.463,0-37.089,16.858-37.089,37.554v445.762
	c0,20.695,16.626,37.555,37.089,37.555h446.576c20.462,0,37.205-16.859,37.205-37.555V74.759
	C681.38,54.063,664.637,37.205,644.175,37.205z"/>
<polygon fill="#0077B5" points="317.934,483.666 240.733,483.666 240.733,235.089 318.05,235.089 318.05,483.666 "/>
<path fill="#0077B5" d="M279.333,201.14c-24.765,0-44.763-20.114-44.763-44.762s19.998-44.762,44.763-44.762
	c24.648,0,44.763,20.114,44.763,44.762C324.096,181.142,304.098,201.14,279.333,201.14z"/>
<path fill="#0077B5" d="M607.319,483.666h-77.2V362.75c0-28.834-0.582-65.923-40.112-65.923c-40.228,0-46.39,31.392-46.39,63.83
	v123.01h-77.2V235.089h74.061v33.949h1.047c10.348-19.532,35.577-40.111,73.131-40.111c78.131,0,92.664,51.505,92.664,118.475
	V483.666z"/>
</svg>
